<svg xmlns="http://www.w3.org/2000/svg" xmlns:xlink="http://www.w3.org/1999/xlink" id="Layer_1" width="50" height="50" overflow="hidden" viewBox="0 0 50 50"><path fill="#A0A1A2" d="M0 44.8C0 45.8 0.8 46.7 1.8 46.7L48.1 46.7C49.1 46.7 50 45.9 50 44.8L50 11.7 0 11.7 0 44.8Z"/><path fill="#7A7A7A" d="M48.1 4 1.8 4C0.8 4 0 4.9 0 5.9L0 11.6 50 11.6 50 5.9C50 4.9 49.2 4 48.1 4"/><rect width="12" height="27.8" x="3.7" y="15.1" fill="#804998"/><rect width="12" height="27.8" x="19" y="15.1" fill="#804998"/><rect width="12" height="27.8" x="34.3" y="15.1" fill="#804998"/><path fill="#FFF" d="M2 4C0.9 4 0 4.9 0 6L0 13.3 0 16.6 0 44.6C0 45.7 0.9 46.6 2 46.6L4.2 46.6 43.6 4 2 4Z" opacity=".2"/></svg>