<svg xmlns="http://www.w3.org/2000/svg" xmlns:xlink="http://www.w3.org/1999/xlink" id="Layer_1" width="50" height="50" overflow="hidden" viewBox="0 0 50 50"><path fill="#A0A1A2" d="M0 44.4C0 45.4 0.7 46.3 1.9 46.3L48.1 46.3C49.1 46.3 50 45.6 50 44.4L50 11.3 0 11.3 0 44.4Z"/><path fill="#7A7A7A" d="M48.1 3.7 1.9 3.7C0.7 3.7 0 4.6 0 5.6L0 11.3 50 11.3 50 5.6C50 4.6 49.3 3.7 48.1 3.7"/><rect width="12.6" height="7.6" x="18.8" y="14.6" fill="#FFF"/><rect width="12.6" height="7.6" x="18.8" y="24.9" fill="#FCD116"/><rect width="12.6" height="7.6" x="33.8" y="24.9" fill="#FCD116"/><rect width="12.6" height="7.6" x="33.8" y="14.6" fill="#FFF"/><rect width="12.6" height="7.6" x="3.8" y="14.6" fill="#FFF"/><rect width="12.6" height="7.6" x="3.8" y="24.9" fill="#FFF"/><rect width="12.6" height="7.6" x="3.8" y="35.1" fill="#FCD116"/><rect width="12.6" height="7.6" x="18.8" y="35.1" fill="#FCD116"/><rect width="12.6" height="7.6" x="33.8" y="35.1" fill="#FCD116"/><path fill="#FFF" d="M1.9 3.7C1 3.7 0 4.6 0 5.6L0 13 0 16.3 0 44.4C0 45.4 1 46.3 1.9 46.3L4 46.3 43.6 3.7 1.9 3.7Z" opacity=".2"/></svg>