<svg xmlns="http://www.w3.org/2000/svg" xmlns:xlink="http://www.w3.org/1999/xlink" id="Layer_1" width="50" height="50" overflow="hidden" viewBox="0 0 50 50"><path fill="#A0A1A2" d="M0 44.8C0 45.8 0.8 46.7 1.8 46.7L48.1 46.7C49.1 46.7 50 45.9 50 44.8L50 11.7 0 11.7 0 44.8Z"/><path fill="#7A7A7A" d="M48.1 4 1.8 4C0.8 4 0 4.9 0 5.9L0 11.6 50 11.6 50 5.9C50 4.9 49.2 4 48.1 4"/><path fill="#FFF" d="M38 21.2 38 18.8 22.8 18.8 19.2 15.2 9.7 15.2 9.7 41.5C9.7 42.3 10.3 42.9 11.1 42.9L11.1 42.9 38.3 42.9C39.1 42.9 39.7 42.3 39.7 41.5L39.7 21.2 38 21.2Z" opacity=".8"/><path fill="#FF8C00" d="M12.5 21.2 12.5 41.5C12.5 42.3 11.9 42.9 11.1 42.9 10.3 42.9 9.7 42.3 9.7 41.5L9.7 15.2 19.3 15.2 22.9 18.8 38 18.8 38 21.2 12.5 21.2Z"/><path fill="#FFF" d="M2 4C0.9 4 0 4.9 0 6L0 13.3 0 16.6 0 44.6C0 45.7 0.9 46.6 2 46.6L4.2 46.6 43.6 4 2 4Z" opacity=".2"/></svg>